%TF.GenerationSoftware,KiCad,Pcbnew,(6.0.4)*%
%TF.CreationDate,2022-04-06T18:13:36-03:00*%
%TF.ProjectId,LayoutPCB,4c61796f-7574-4504-9342-2e6b69636164,Rafael Pascale*%
%TF.SameCoordinates,Original*%
%TF.FileFunction,Copper,L1,Top*%
%TF.FilePolarity,Positive*%
%FSLAX46Y46*%
G04 Gerber Fmt 4.6, Leading zero omitted, Abs format (unit mm)*
G04 Created by KiCad (PCBNEW (6.0.4)) date 2022-04-06 18:13:36*
%MOMM*%
%LPD*%
G01*
G04 APERTURE LIST*
G04 Aperture macros list*
%AMRoundRect*
0 Rectangle with rounded corners*
0 $1 Rounding radius*
0 $2 $3 $4 $5 $6 $7 $8 $9 X,Y pos of 4 corners*
0 Add a 4 corners polygon primitive as box body*
4,1,4,$2,$3,$4,$5,$6,$7,$8,$9,$2,$3,0*
0 Add four circle primitives for the rounded corners*
1,1,$1+$1,$2,$3*
1,1,$1+$1,$4,$5*
1,1,$1+$1,$6,$7*
1,1,$1+$1,$8,$9*
0 Add four rect primitives between the rounded corners*
20,1,$1+$1,$2,$3,$4,$5,0*
20,1,$1+$1,$4,$5,$6,$7,0*
20,1,$1+$1,$6,$7,$8,$9,0*
20,1,$1+$1,$8,$9,$2,$3,0*%
G04 Aperture macros list end*
%ADD10C,0.300000*%
%TA.AperFunction,NonConductor*%
%ADD11C,0.300000*%
%TD*%
%TA.AperFunction,NonConductor*%
%ADD12C,0.200000*%
%TD*%
%TA.AperFunction,SMDPad,CuDef*%
%ADD13R,7.880000X10.840000*%
%TD*%
%TA.AperFunction,SMDPad,CuDef*%
%ADD14R,3.790000X0.990000*%
%TD*%
%TA.AperFunction,ComponentPad*%
%ADD15C,1.600000*%
%TD*%
%TA.AperFunction,ComponentPad*%
%ADD16O,1.600000X1.600000*%
%TD*%
%TA.AperFunction,SMDPad,CuDef*%
%ADD17R,1.700000X1.700000*%
%TD*%
%TA.AperFunction,SMDPad,CuDef*%
%ADD18RoundRect,0.237500X0.250000X0.237500X-0.250000X0.237500X-0.250000X-0.237500X0.250000X-0.237500X0*%
%TD*%
%TA.AperFunction,SMDPad,CuDef*%
%ADD19R,0.650000X1.560000*%
%TD*%
%TA.AperFunction,SMDPad,CuDef*%
%ADD20R,1.498600X1.498600*%
%TD*%
%TA.AperFunction,SMDPad,CuDef*%
%ADD21RoundRect,0.150000X0.150000X-0.825000X0.150000X0.825000X-0.150000X0.825000X-0.150000X-0.825000X0*%
%TD*%
%TA.AperFunction,SMDPad,CuDef*%
%ADD22R,3.000000X2.290000*%
%TD*%
%TA.AperFunction,SMDPad,CuDef*%
%ADD23RoundRect,0.237500X-0.250000X-0.237500X0.250000X-0.237500X0.250000X0.237500X-0.250000X0.237500X0*%
%TD*%
%TA.AperFunction,SMDPad,CuDef*%
%ADD24RoundRect,0.250000X0.400000X0.625000X-0.400000X0.625000X-0.400000X-0.625000X0.400000X-0.625000X0*%
%TD*%
%TA.AperFunction,ComponentPad*%
%ADD25C,1.500000*%
%TD*%
%TA.AperFunction,ComponentPad*%
%ADD26R,1.500000X1.500000*%
%TD*%
%TA.AperFunction,SMDPad,CuDef*%
%ADD27RoundRect,0.250000X-0.337500X-0.475000X0.337500X-0.475000X0.337500X0.475000X-0.337500X0.475000X0*%
%TD*%
%TA.AperFunction,ComponentPad*%
%ADD28C,2.997200*%
%TD*%
%TA.AperFunction,SMDPad,CuDef*%
%ADD29RoundRect,0.250000X0.325000X0.450000X-0.325000X0.450000X-0.325000X-0.450000X0.325000X-0.450000X0*%
%TD*%
%TA.AperFunction,SMDPad,CuDef*%
%ADD30RoundRect,0.250000X-0.450000X0.350000X-0.450000X-0.350000X0.450000X-0.350000X0.450000X0.350000X0*%
%TD*%
%TA.AperFunction,SMDPad,CuDef*%
%ADD31RoundRect,0.250000X-0.475000X0.337500X-0.475000X-0.337500X0.475000X-0.337500X0.475000X0.337500X0*%
%TD*%
%TA.AperFunction,SMDPad,CuDef*%
%ADD32RoundRect,0.250000X-0.350000X-0.450000X0.350000X-0.450000X0.350000X0.450000X-0.350000X0.450000X0*%
%TD*%
%TA.AperFunction,ComponentPad*%
%ADD33R,3.500000X3.500000*%
%TD*%
%TA.AperFunction,ComponentPad*%
%ADD34C,3.500000*%
%TD*%
%TA.AperFunction,ComponentPad*%
%ADD35R,3.800000X3.800000*%
%TD*%
%TA.AperFunction,ComponentPad*%
%ADD36C,4.000000*%
%TD*%
%TA.AperFunction,WasherPad*%
%ADD37C,0.450000*%
%TD*%
%TA.AperFunction,SMDPad,CuDef*%
%ADD38R,4.000000X0.450000*%
%TD*%
%TA.AperFunction,SMDPad,CuDef*%
%ADD39R,1.550000X1.425000*%
%TD*%
%TA.AperFunction,SMDPad,CuDef*%
%ADD40R,1.900000X1.800000*%
%TD*%
%TA.AperFunction,SMDPad,CuDef*%
%ADD41R,1.300000X2.300000*%
%TD*%
%TA.AperFunction,SMDPad,CuDef*%
%ADD42R,1.900000X1.000000*%
%TD*%
%TA.AperFunction,ConnectorPad*%
%ADD43C,0.787400*%
%TD*%
%TA.AperFunction,ComponentPad*%
%ADD44R,1.498600X1.498600*%
%TD*%
%TA.AperFunction,ComponentPad*%
%ADD45C,1.498600*%
%TD*%
%TA.AperFunction,ViaPad*%
%ADD46C,0.800000*%
%TD*%
%TA.AperFunction,Conductor*%
%ADD47C,0.200000*%
%TD*%
%TA.AperFunction,Conductor*%
%ADD48C,0.250000*%
%TD*%
%TA.AperFunction,Conductor*%
%ADD49C,0.800000*%
%TD*%
%TA.AperFunction,Conductor*%
%ADD50C,0.500000*%
%TD*%
%TA.AperFunction,Conductor*%
%ADD51C,1.000000*%
%TD*%
%TA.AperFunction,Conductor*%
%ADD52C,0.400000*%
%TD*%
G04 APERTURE END LIST*
D10*
D11*
X123761571Y-68433142D02*
X124904428Y-68433142D01*
D10*
D11*
X115125571Y-70973142D02*
X116268428Y-70973142D01*
X115697000Y-71544571D02*
X115697000Y-70401714D01*
D10*
D11*
X112458571Y-48367142D02*
X113601428Y-48367142D01*
D10*
D11*
X122618571Y-48367142D02*
X123761428Y-48367142D01*
X123190000Y-48938571D02*
X123190000Y-47795714D01*
D12*
X52070000Y-31750000D02*
X52070000Y-36830000D01*
X143510000Y-31750000D02*
X52070000Y-31750000D01*
X144484032Y-147412392D02*
X143510000Y-31750000D01*
X51648754Y-147273021D02*
X144484032Y-147412392D01*
X52070000Y-36830000D02*
X51648754Y-147273021D01*
D10*
D11*
X58547142Y-124980000D02*
X58404285Y-124908571D01*
X58190000Y-124908571D01*
X57975714Y-124980000D01*
X57832857Y-125122857D01*
X57761428Y-125265714D01*
X57690000Y-125551428D01*
X57690000Y-125765714D01*
X57761428Y-126051428D01*
X57832857Y-126194285D01*
X57975714Y-126337142D01*
X58190000Y-126408571D01*
X58332857Y-126408571D01*
X58547142Y-126337142D01*
X58618571Y-126265714D01*
X58618571Y-125765714D01*
X58332857Y-125765714D01*
X59261428Y-126408571D02*
X59261428Y-124908571D01*
X60118571Y-126408571D01*
X60118571Y-124908571D01*
X60832857Y-126408571D02*
X60832857Y-124908571D01*
X61190000Y-124908571D01*
X61404285Y-124980000D01*
X61547142Y-125122857D01*
X61618571Y-125265714D01*
X61690000Y-125551428D01*
X61690000Y-125765714D01*
X61618571Y-126051428D01*
X61547142Y-126194285D01*
X61404285Y-126337142D01*
X61190000Y-126408571D01*
X60832857Y-126408571D01*
D10*
D11*
X132207142Y-89420000D02*
X132064285Y-89348571D01*
X131850000Y-89348571D01*
X131635714Y-89420000D01*
X131492857Y-89562857D01*
X131421428Y-89705714D01*
X131350000Y-89991428D01*
X131350000Y-90205714D01*
X131421428Y-90491428D01*
X131492857Y-90634285D01*
X131635714Y-90777142D01*
X131850000Y-90848571D01*
X131992857Y-90848571D01*
X132207142Y-90777142D01*
X132278571Y-90705714D01*
X132278571Y-90205714D01*
X131992857Y-90205714D01*
X132921428Y-90848571D02*
X132921428Y-89348571D01*
X133778571Y-90848571D01*
X133778571Y-89348571D01*
X134492857Y-90848571D02*
X134492857Y-89348571D01*
X134850000Y-89348571D01*
X135064285Y-89420000D01*
X135207142Y-89562857D01*
X135278571Y-89705714D01*
X135350000Y-89991428D01*
X135350000Y-90205714D01*
X135278571Y-90491428D01*
X135207142Y-90634285D01*
X135064285Y-90777142D01*
X134850000Y-90848571D01*
X134492857Y-90848571D01*
D10*
D11*
X128810000Y-124908571D02*
X129310000Y-126408571D01*
X129810000Y-124908571D01*
X131167142Y-126265714D02*
X131095714Y-126337142D01*
X130881428Y-126408571D01*
X130738571Y-126408571D01*
X130524285Y-126337142D01*
X130381428Y-126194285D01*
X130310000Y-126051428D01*
X130238571Y-125765714D01*
X130238571Y-125551428D01*
X130310000Y-125265714D01*
X130381428Y-125122857D01*
X130524285Y-124980000D01*
X130738571Y-124908571D01*
X130881428Y-124908571D01*
X131095714Y-124980000D01*
X131167142Y-125051428D01*
X132667142Y-126265714D02*
X132595714Y-126337142D01*
X132381428Y-126408571D01*
X132238571Y-126408571D01*
X132024285Y-126337142D01*
X131881428Y-126194285D01*
X131810000Y-126051428D01*
X131738571Y-125765714D01*
X131738571Y-125551428D01*
X131810000Y-125265714D01*
X131881428Y-125122857D01*
X132024285Y-124980000D01*
X132238571Y-124908571D01*
X132381428Y-124908571D01*
X132595714Y-124980000D01*
X132667142Y-125051428D01*
D10*
D11*
X99084285Y-90062857D02*
X99584285Y-90062857D01*
X99798571Y-90848571D02*
X99084285Y-90848571D01*
X99084285Y-89348571D01*
X99798571Y-89348571D01*
X100370000Y-90777142D02*
X100584285Y-90848571D01*
X100941428Y-90848571D01*
X101084285Y-90777142D01*
X101155714Y-90705714D01*
X101227142Y-90562857D01*
X101227142Y-90420000D01*
X101155714Y-90277142D01*
X101084285Y-90205714D01*
X100941428Y-90134285D01*
X100655714Y-90062857D01*
X100512857Y-89991428D01*
X100441428Y-89920000D01*
X100370000Y-89777142D01*
X100370000Y-89634285D01*
X100441428Y-89491428D01*
X100512857Y-89420000D01*
X100655714Y-89348571D01*
X101012857Y-89348571D01*
X101227142Y-89420000D01*
X101870000Y-90848571D02*
X101870000Y-89348571D01*
X102441428Y-89348571D01*
X102584285Y-89420000D01*
X102655714Y-89491428D01*
X102727142Y-89634285D01*
X102727142Y-89848571D01*
X102655714Y-89991428D01*
X102584285Y-90062857D01*
X102441428Y-90134285D01*
X101870000Y-90134285D01*
X104370000Y-89348571D02*
X105298571Y-89348571D01*
X104798571Y-89920000D01*
X105012857Y-89920000D01*
X105155714Y-89991428D01*
X105227142Y-90062857D01*
X105298571Y-90205714D01*
X105298571Y-90562857D01*
X105227142Y-90705714D01*
X105155714Y-90777142D01*
X105012857Y-90848571D01*
X104584285Y-90848571D01*
X104441428Y-90777142D01*
X104370000Y-90705714D01*
X105870000Y-89491428D02*
X105941428Y-89420000D01*
X106084285Y-89348571D01*
X106441428Y-89348571D01*
X106584285Y-89420000D01*
X106655714Y-89491428D01*
X106727142Y-89634285D01*
X106727142Y-89777142D01*
X106655714Y-89991428D01*
X105798571Y-90848571D01*
X106727142Y-90848571D01*
D10*
D11*
X131350000Y-74108571D02*
X131850000Y-75608571D01*
X132350000Y-74108571D01*
X133707142Y-75465714D02*
X133635714Y-75537142D01*
X133421428Y-75608571D01*
X133278571Y-75608571D01*
X133064285Y-75537142D01*
X132921428Y-75394285D01*
X132850000Y-75251428D01*
X132778571Y-74965714D01*
X132778571Y-74751428D01*
X132850000Y-74465714D01*
X132921428Y-74322857D01*
X133064285Y-74180000D01*
X133278571Y-74108571D01*
X133421428Y-74108571D01*
X133635714Y-74180000D01*
X133707142Y-74251428D01*
X135207142Y-75465714D02*
X135135714Y-75537142D01*
X134921428Y-75608571D01*
X134778571Y-75608571D01*
X134564285Y-75537142D01*
X134421428Y-75394285D01*
X134350000Y-75251428D01*
X134278571Y-74965714D01*
X134278571Y-74751428D01*
X134350000Y-74465714D01*
X134421428Y-74322857D01*
X134564285Y-74180000D01*
X134778571Y-74108571D01*
X134921428Y-74108571D01*
X135135714Y-74180000D01*
X135207142Y-74251428D01*
D13*
%TO.P,Regulador de Tensao ,6*%
%TO.N,N/C*%
X135160000Y-59690000D03*
D14*
%TO.P,Regulador de Tensao ,5*%
X124410000Y-63090000D03*
%TO.P,Regulador de Tensao ,4*%
X124410000Y-61390000D03*
%TO.P,Regulador de Tensao ,3*%
X124410000Y-59690000D03*
%TO.P,Regulador de Tensao ,2*%
X124410000Y-57990000D03*
%TO.P,Regulador de Tensao ,1*%
X124410000Y-56290000D03*
%TD*%
D15*
%TO.P,Inductor,1*%
%TO.N,N/C*%
X115570000Y-59690000D03*
D16*
%TO.P,Inductor,2*%
X115570000Y-62230000D03*
%TD*%
D15*
%TO.P,Capacitor ,1*%
%TO.N,N/C*%
X114840000Y-69850000D03*
%TO.P,Capacitor ,2*%
X124840000Y-69850000D03*
%TD*%
D17*
%TO.P,J5,1,Pin_1*%
%TO.N,GND*%
X104194800Y-71269000D03*
%TD*%
D18*
%TO.P,R4,1*%
%TO.N,GND*%
X97607300Y-64769000D03*
%TO.P,R4,2*%
%TO.N,Net-(R4-Pad2)*%
X95782300Y-64769000D03*
%TD*%
D19*
%TO.P,U2,1,OD*%
%TO.N,/G1*%
X91744800Y-62619000D03*
%TO.P,U2,2,CS*%
%TO.N,Net-(R4-Pad2)*%
X92694800Y-62619000D03*
%TO.P,U2,3,OC*%
%TO.N,/OC*%
X93644800Y-62619000D03*
%TO.P,U2,4,TD*%
%TO.N,unconnected-(U2-Pad4)*%
X93644800Y-59919000D03*
%TO.P,U2,5,VCC*%
%TO.N,Net-(C3-Pad1)*%
X92694800Y-59919000D03*
%TO.P,U2,6,GND*%
%TO.N,BAT-*%
X91744800Y-59919000D03*
%TD*%
D17*
%TO.P,J4,1,Pin_1*%
%TO.N,BAT-*%
X104444800Y-67019000D03*
%TD*%
D20*
%TO.P,S2,1*%
%TO.N,N/C*%
X73914000Y-82169000D03*
%TO.P,S2,2*%
X78740000Y-82169000D03*
%TD*%
%TO.P,S1,1*%
%TO.N,N/C*%
X73914000Y-98298000D03*
%TO.P,S1,2*%
X78740000Y-98298000D03*
%TD*%
D21*
%TO.P,U1,1,TEMP*%
%TO.N,GND*%
X78539800Y-66794000D03*
%TO.P,U1,2,PROG*%
%TO.N,Net-(R3-Pad1)*%
X79809800Y-66794000D03*
%TO.P,U1,3,GND*%
%TO.N,GND*%
X81079800Y-66794000D03*
%TO.P,U1,4,VCC*%
%TO.N,VIN*%
X82349800Y-66794000D03*
%TO.P,U1,5,BAT*%
%TO.N,BAT+*%
X82349800Y-61844000D03*
%TO.P,U1,6,~{STDBY}*%
%TO.N,Net-(R2-Pad2)*%
X81079800Y-61844000D03*
%TO.P,U1,7,~{CHRG}*%
%TO.N,Net-(R1-Pad2)*%
X79809800Y-61844000D03*
%TO.P,U1,8,CE*%
%TO.N,VIN*%
X78539800Y-61844000D03*
D22*
%TO.P,U1,9,PP*%
X80444800Y-64319000D03*
%TD*%
D17*
%TO.P,J6,1,Pin_1*%
%TO.N,BAT+*%
X104694800Y-57019000D03*
%TD*%
D23*
%TO.P,R2,1*%
%TO.N,Net-(D2-Pad1)*%
X77782300Y-57769000D03*
%TO.P,R2,2*%
%TO.N,Net-(R2-Pad2)*%
X79607300Y-57769000D03*
%TD*%
D24*
%TO.P,R6,1*%
%TO.N,/OC*%
X99244800Y-67519000D03*
%TO.P,R6,2*%
%TO.N,/G2*%
X96144800Y-67519000D03*
%TD*%
D25*
%TO.P,REF\u002A\u002A,4*%
%TO.N,N/C*%
X76297500Y-39272500D03*
%TO.P,REF\u002A\u002A,3*%
X78837500Y-39272500D03*
%TO.P,REF\u002A\u002A,2*%
X81377500Y-39272500D03*
D26*
%TO.P,REF\u002A\u002A,1*%
X83917500Y-39272500D03*
%TD*%
D17*
%TO.P,J7,1,Pin_1*%
%TO.N,BAT+*%
X104694800Y-61769000D03*
%TD*%
D27*
%TO.P,C1,1*%
%TO.N,VIN*%
X75369800Y-69769000D03*
%TO.P,C1,2*%
%TO.N,GND*%
X77444800Y-69769000D03*
%TD*%
D28*
%TO.P,,*%
%TO.N,GND*%
X118999000Y-97282000D03*
%TD*%
D29*
%TO.P,D1,1,K*%
%TO.N,Net-(D1-Pad1)*%
X75219800Y-60769000D03*
%TO.P,D1,2,A*%
%TO.N,VIN*%
X73169800Y-60769000D03*
%TD*%
D30*
%TO.P,R5,1*%
%TO.N,BAT+*%
X85694800Y-59019000D03*
%TO.P,R5,2*%
%TO.N,Net-(C3-Pad1)*%
X85694800Y-61019000D03*
%TD*%
D17*
%TO.P,J2,1,Pin_1*%
%TO.N,GND*%
X69144800Y-71519000D03*
%TD*%
D28*
%TO.P,,*%
%TO.N,GND*%
X118999000Y-83286600D03*
%TD*%
D31*
%TO.P,C2,1*%
%TO.N,BAT+*%
X84519800Y-63444000D03*
%TO.P,C2,2*%
%TO.N,GND*%
X84519800Y-65519000D03*
%TD*%
D32*
%TO.P,R3,1*%
%TO.N,Net-(R3-Pad1)*%
X80944800Y-70519000D03*
%TO.P,R3,2*%
%TO.N,GND*%
X82944800Y-70519000D03*
%TD*%
D23*
%TO.P,R1,1*%
%TO.N,Net-(D1-Pad1)*%
X77032300Y-59519000D03*
%TO.P,R1,2*%
%TO.N,Net-(R1-Pad2)*%
X78857300Y-59519000D03*
%TD*%
D17*
%TO.P,J3,1,Pin_1*%
%TO.N,VIN*%
X68744800Y-58219000D03*
%TD*%
D31*
%TO.P,C3,1*%
%TO.N,Net-(C3-Pad1)*%
X86944800Y-63519000D03*
%TO.P,C3,2*%
%TO.N,BAT-*%
X86944800Y-65594000D03*
%TD*%
D19*
%TO.P,U3,1,S1*%
%TO.N,BAT-*%
X91494800Y-69369000D03*
%TO.P,U3,2,D1D2*%
%TO.N,unconnected-(U3-Pad2)*%
X92444800Y-69369000D03*
%TO.P,U3,3,S2*%
%TO.N,GND*%
X93394800Y-69369000D03*
%TO.P,U3,4,G2*%
%TO.N,/G2*%
X93394800Y-66669000D03*
%TO.P,U3,5,D1D2*%
%TO.N,unconnected-(U3-Pad5)*%
X92444800Y-66669000D03*
%TO.P,U3,6,G1*%
%TO.N,/G1*%
X91494800Y-66669000D03*
%TD*%
D29*
%TO.P,D2,1,K*%
%TO.N,Net-(D2-Pad1)*%
X75219800Y-57819000D03*
%TO.P,D2,2,A*%
%TO.N,VIN*%
X73169800Y-57819000D03*
%TD*%
D28*
%TO.P,,*%
%TO.N,GND*%
X89789000Y-83286600D03*
%TD*%
%TO.P,,*%
%TO.N,GND*%
X89789000Y-97282000D03*
%TD*%
D33*
%TO.P,REF\u002A\u002A,1*%
%TO.N,N/C*%
X130348300Y-121539000D03*
D34*
%TO.P,REF\u002A\u002A,2*%
X58348300Y-121539000D03*
%TD*%
D35*
%TO.P,REF\u002A\u002A,1*%
%TO.N,N/C*%
X133350000Y-80010000D03*
D36*
%TO.P,REF\u002A\u002A,2*%
X133350000Y-85010000D03*
%TD*%
D15*
%TO.P,Capacitor ,1*%
%TO.N,N/C*%
X113110000Y-49530000D03*
%TO.P,Capacitor ,2*%
X123110000Y-49530000D03*
%TD*%
D37*
%TO.P,J1,*%
%TO.N,*%
X70084890Y-62959000D03*
X70084890Y-66698992D03*
D38*
%TO.P,J1,1,VBUS*%
%TO.N,VIN*%
X71967300Y-63519000D03*
%TO.P,J1,5,GND*%
%TO.N,GND*%
X71967300Y-66119000D03*
D39*
%TO.P,J1,6,Shield*%
%TO.N,unconnected-(J1-Pad6)*%
X70577300Y-61829000D03*
D40*
X67997300Y-63669000D03*
D41*
X67997300Y-68194000D03*
D39*
X70577300Y-67809000D03*
D42*
X67997300Y-66369000D03*
D41*
X67997300Y-61444000D03*
%TD*%
D43*
%TO.P,REF\u002A\u002A,1*%
%TO.N,N/C*%
X72758300Y-137414000D03*
%TO.P,REF\u002A\u002A,2*%
X72758300Y-136144000D03*
%TO.P,REF\u002A\u002A,3*%
X74028300Y-137414000D03*
%TO.P,REF\u002A\u002A,4*%
X74028300Y-136144000D03*
%TO.P,REF\u002A\u002A,5*%
X75298300Y-137414000D03*
%TO.P,REF\u002A\u002A,6*%
X75298300Y-136144000D03*
%TD*%
D44*
%TO.P,JP2,1*%
%TO.N,N/C*%
X76327000Y-101600000D03*
D45*
%TO.P,JP2,2*%
X78867000Y-101600000D03*
%TO.P,JP2,3*%
X81407000Y-101600000D03*
%TO.P,JP2,4*%
X83947000Y-101600000D03*
%TO.P,JP2,5*%
X86487000Y-101600000D03*
%TO.P,JP2,6*%
X89027000Y-101600000D03*
%TO.P,JP2,7*%
X91567000Y-101600000D03*
%TO.P,JP2,8*%
X94107000Y-101600000D03*
%TO.P,JP2,9*%
X96647000Y-101600000D03*
%TO.P,JP2,10*%
X99187000Y-101600000D03*
%TO.P,JP2,11*%
X101727000Y-101600000D03*
%TO.P,JP2,12*%
X104267000Y-101600000D03*
%TO.P,JP2,13*%
X106807000Y-101600000D03*
%TO.P,JP2,14*%
X109347000Y-101600000D03*
%TO.P,JP2,15*%
X111887000Y-101600000D03*
%TO.P,JP2,16*%
X114427000Y-101600000D03*
%TO.P,JP2,17*%
X116967000Y-101600000D03*
%TO.P,JP2,18*%
X119507000Y-101600000D03*
%TD*%
%TO.P,JP3,18*%
%TO.N,N/C*%
X119507000Y-78867000D03*
%TO.P,JP3,17*%
X116967000Y-78867000D03*
%TO.P,JP3,16*%
X114427000Y-78867000D03*
%TO.P,JP3,15*%
X111887000Y-78867000D03*
%TO.P,JP3,14*%
X109347000Y-78867000D03*
%TO.P,JP3,13*%
X106807000Y-78867000D03*
%TO.P,JP3,12*%
X104267000Y-78867000D03*
%TO.P,JP3,11*%
X101727000Y-78867000D03*
%TO.P,JP3,10*%
X99187000Y-78867000D03*
%TO.P,JP3,9*%
X96647000Y-78867000D03*
%TO.P,JP3,8*%
X94107000Y-78867000D03*
%TO.P,JP3,7*%
X91567000Y-78867000D03*
%TO.P,JP3,6*%
X89027000Y-78867000D03*
%TO.P,JP3,5*%
X86487000Y-78867000D03*
%TO.P,JP3,4*%
X83947000Y-78867000D03*
%TO.P,JP3,3*%
X81407000Y-78867000D03*
%TO.P,JP3,2*%
X78867000Y-78867000D03*
D44*
%TO.P,JP3,1*%
X76327000Y-78867000D03*
%TD*%
D46*
%TO.N,*%
X78867000Y-77470000D03*
X96647000Y-77597000D03*
X119507000Y-77470000D03*
X96774000Y-102997000D03*
X78867000Y-102997000D03*
X76327000Y-102997000D03*
X76454000Y-77470000D03*
X76200000Y-78867000D03*
X64516000Y-71755000D03*
X64389000Y-57912000D03*
X107823000Y-56896000D03*
X107823000Y-71628000D03*
X107950000Y-67056000D03*
X107696000Y-61468000D03*
%TD*%
D47*
%TO.N,*%
X76297500Y-45055500D02*
X76327000Y-45085000D01*
X76297500Y-39272500D02*
X76297500Y-45055500D01*
X76327000Y-45085000D02*
X62865000Y-45085000D01*
X137287000Y-45085000D02*
X76327000Y-45085000D01*
X76568300Y-139954000D02*
X74028300Y-137414000D01*
X77470000Y-139954000D02*
X76568300Y-139954000D01*
X96774000Y-120650000D02*
X77470000Y-139954000D01*
X96774000Y-102997000D02*
X96774000Y-120650000D01*
X72758300Y-130187700D02*
X72758300Y-136144000D01*
X78867000Y-124079000D02*
X72758300Y-130187700D01*
X78867000Y-102997000D02*
X78867000Y-124079000D01*
X76327000Y-102997000D02*
X76581000Y-102997000D01*
X76454000Y-103124000D02*
X76327000Y-102997000D01*
X66040000Y-134366000D02*
X76454000Y-123952000D01*
X66040000Y-138557000D02*
X66040000Y-134366000D01*
X67437000Y-139954000D02*
X66040000Y-138557000D01*
X76454000Y-123952000D02*
X76454000Y-103124000D01*
X72136000Y-139954000D02*
X67437000Y-139954000D01*
X72758300Y-139331700D02*
X72136000Y-139954000D01*
X72758300Y-137414000D02*
X72758300Y-139331700D01*
X58348300Y-91257700D02*
X58348300Y-121539000D01*
X74295000Y-75311000D02*
X58348300Y-91257700D01*
X107569000Y-75311000D02*
X74295000Y-75311000D01*
X109347000Y-73533000D02*
X107569000Y-75311000D01*
X109347000Y-68453000D02*
X109347000Y-73533000D01*
X107950000Y-67056000D02*
X109347000Y-68453000D01*
X64516000Y-70104000D02*
X64516000Y-71755000D01*
X57277000Y-62865000D02*
X64516000Y-70104000D01*
X57277000Y-50673000D02*
X57277000Y-62865000D01*
X62865000Y-45085000D02*
X57277000Y-50673000D01*
X142875000Y-77470000D02*
X142875000Y-50673000D01*
X142875000Y-50673000D02*
X137287000Y-45085000D01*
X135335000Y-85010000D02*
X142875000Y-77470000D01*
X133350000Y-85010000D02*
X135335000Y-85010000D01*
X128524000Y-46482000D02*
X109601000Y-46482000D01*
X109601000Y-46482000D02*
X106172000Y-49911000D01*
D48*
X106172000Y-49911000D02*
X67818000Y-49911000D01*
X107188000Y-49911000D02*
X106172000Y-49911000D01*
D47*
X129540000Y-47498000D02*
X128524000Y-46482000D01*
X129540000Y-58293000D02*
X129540000Y-47498000D01*
X126443000Y-61390000D02*
X129540000Y-58293000D01*
X124410000Y-61390000D02*
X126443000Y-61390000D01*
D48*
X64262000Y-57785000D02*
X64389000Y-57912000D01*
X64262000Y-53467000D02*
X64262000Y-57785000D01*
X67818000Y-49911000D02*
X64262000Y-53467000D01*
X110744000Y-53467000D02*
X107188000Y-49911000D01*
X110744000Y-60960000D02*
X110744000Y-53467000D01*
X114840000Y-65056000D02*
X110744000Y-60960000D01*
X114840000Y-69850000D02*
X114840000Y-65056000D01*
D47*
X58166000Y-121356700D02*
X58348300Y-121539000D01*
D49*
%TO.N,GND*%
X106694800Y-70978200D02*
X106694800Y-71019000D01*
D48*
%TO.N,*%
X125984000Y-117174700D02*
X130348300Y-121539000D01*
X125984000Y-99441000D02*
X125984000Y-117174700D01*
X126492000Y-98933000D02*
X125984000Y-99441000D01*
X126492000Y-82804000D02*
X126492000Y-98933000D01*
X125857000Y-82804000D02*
X126492000Y-82804000D01*
X123444000Y-80391000D02*
X125857000Y-82804000D01*
X123444000Y-77851000D02*
X123444000Y-80391000D01*
X121920000Y-76327000D02*
X123444000Y-77851000D01*
X116205000Y-76327000D02*
X121920000Y-76327000D01*
X111252000Y-71374000D02*
X116205000Y-76327000D01*
X111252000Y-65024000D02*
X111252000Y-71374000D01*
X107696000Y-61468000D02*
X111252000Y-65024000D01*
%TO.N,GND*%
X118999000Y-83286600D02*
X118999000Y-97282000D01*
D47*
%TO.N,*%
X124840000Y-76500000D02*
X133350000Y-85010000D01*
X124840000Y-69850000D02*
X124840000Y-76500000D01*
D48*
X115570000Y-69120000D02*
X114840000Y-69850000D01*
X115570000Y-62230000D02*
X115570000Y-69120000D01*
D47*
X124410000Y-57990000D02*
X117270000Y-57990000D01*
X117270000Y-57990000D02*
X115570000Y-59690000D01*
X119380000Y-62230000D02*
X120650000Y-63500000D01*
X120650000Y-63500000D02*
X124000000Y-63500000D01*
X119380000Y-60960000D02*
X119380000Y-62230000D01*
X124000000Y-63500000D02*
X124410000Y-63090000D01*
X120650000Y-59690000D02*
X119380000Y-60960000D01*
X124410000Y-59690000D02*
X120650000Y-59690000D01*
D50*
%TO.N,GND*%
X97694800Y-64856500D02*
X97607300Y-64769000D01*
D51*
X77944800Y-72769000D02*
X83594800Y-72769000D01*
D49*
X95194800Y-69369000D02*
X95844800Y-70019000D01*
D50*
X81444800Y-68769000D02*
X81079800Y-68404000D01*
D49*
X77574800Y-71279000D02*
X77574800Y-69899000D01*
X77094800Y-71759000D02*
X77574800Y-71279000D01*
X97694800Y-69519000D02*
X100544800Y-69519000D01*
D52*
X97607300Y-64769000D02*
X97694320Y-64856020D01*
D49*
X100544800Y-69519000D02*
X100944800Y-69119000D01*
D51*
X69144800Y-71919000D02*
X72644800Y-71919000D01*
D49*
X73044800Y-67119000D02*
X73044800Y-71519000D01*
X100944800Y-65269000D02*
X101694800Y-64519000D01*
X78539800Y-68924000D02*
X77444800Y-70019000D01*
X84444800Y-70269000D02*
X84444800Y-65594000D01*
D50*
X81079800Y-68404000D02*
X81079800Y-66794000D01*
D49*
X77574800Y-69899000D02*
X77444800Y-69769000D01*
D50*
X84194800Y-70519000D02*
X84444800Y-70269000D01*
D49*
X106194800Y-64519000D02*
X106694800Y-65019000D01*
X84444800Y-71519000D02*
X84444800Y-70269000D01*
D51*
X72644800Y-71919000D02*
X73444800Y-71919000D01*
D49*
X82944800Y-69519000D02*
X82194800Y-68769000D01*
X77094800Y-71919000D02*
X77444800Y-72269000D01*
X101694800Y-64519000D02*
X106194800Y-64519000D01*
X102444800Y-73019000D02*
X104194800Y-71269000D01*
D50*
X84444800Y-65594000D02*
X84519800Y-65519000D01*
D49*
X106694800Y-71019000D02*
X106444800Y-71269000D01*
X106694800Y-65019000D02*
X106694800Y-70978200D01*
D52*
X71967300Y-66119000D02*
X72044800Y-66119000D01*
D49*
X97694800Y-69519000D02*
X97694800Y-64856500D01*
D50*
X82944800Y-70519000D02*
X82944800Y-69519000D01*
X82194800Y-68769000D02*
X81444800Y-68769000D01*
D49*
X82944800Y-70519000D02*
X84194800Y-70519000D01*
X95844800Y-70019000D02*
X97694800Y-70019000D01*
D51*
X73444800Y-71919000D02*
X77094800Y-71919000D01*
D49*
X106444800Y-71269000D02*
X104194800Y-71269000D01*
X77094800Y-71919000D02*
X77094800Y-71759000D01*
X77444800Y-72269000D02*
X77944800Y-72769000D01*
X83594800Y-72769000D02*
X84194800Y-72169000D01*
D51*
X85444800Y-73019000D02*
X102444800Y-73019000D01*
D52*
X72044800Y-66119000D02*
X73044800Y-67119000D01*
D50*
X97694800Y-70019000D02*
X97694800Y-69519000D01*
D49*
X93394800Y-69369000D02*
X95194800Y-69369000D01*
D50*
X84194800Y-72169000D02*
X84194800Y-71769000D01*
D49*
X84194800Y-71769000D02*
X84444800Y-71519000D01*
X100944800Y-69119000D02*
X100944800Y-65269000D01*
D50*
X78539800Y-66794000D02*
X78539800Y-68924000D01*
D49*
X84194800Y-71769000D02*
X85444800Y-73019000D01*
D52*
X73044800Y-71519000D02*
X72644800Y-71919000D01*
D49*
%TO.N,BAT+*%
X82349800Y-60614000D02*
X83944800Y-59019000D01*
D50*
X83099800Y-60924000D02*
X82349800Y-60924000D01*
X82349800Y-60924000D02*
X82349800Y-60614000D01*
X84519800Y-63444000D02*
X84519800Y-62344000D01*
X85694800Y-59019000D02*
X85694800Y-58469000D01*
D49*
X83944800Y-59019000D02*
X85694800Y-59019000D01*
D51*
X104694800Y-61769000D02*
X104694800Y-57019000D01*
D50*
X84519800Y-62344000D02*
X83099800Y-60924000D01*
X82349800Y-60924000D02*
X82349800Y-61844000D01*
D51*
X88344800Y-55819000D02*
X103494800Y-55819000D01*
D49*
X85694800Y-58469000D02*
X88344800Y-55819000D01*
X103494800Y-55819000D02*
X103994800Y-56319000D01*
D50*
X103994800Y-56319000D02*
X104694800Y-57019000D01*
%TO.N,Net-(R1-Pad2)*%
X78857300Y-59519000D02*
X79444800Y-59519000D01*
X79809800Y-59884000D02*
X79809800Y-61844000D01*
D49*
X79444800Y-59519000D02*
X79809800Y-59884000D01*
D50*
%TO.N,Net-(D1-Pad1)*%
X75219800Y-60769000D02*
X75369800Y-60919000D01*
D49*
X75632300Y-60919000D02*
X77032300Y-59519000D01*
D50*
X75369800Y-60919000D02*
X75632300Y-60919000D01*
D49*
%TO.N,VIN*%
X73069800Y-57919000D02*
X73169800Y-57819000D01*
X78539800Y-63914000D02*
X78944800Y-64319000D01*
D50*
X75369800Y-69769000D02*
X75044800Y-69444000D01*
X81994800Y-64319000D02*
X82444800Y-64769000D01*
D49*
X71344800Y-58219000D02*
X71344800Y-58319000D01*
D50*
X78539800Y-61844000D02*
X78539800Y-63914000D01*
D49*
X75104800Y-63159000D02*
X75494800Y-62769000D01*
D50*
X80444800Y-64319000D02*
X81994800Y-64319000D01*
X73394800Y-61919000D02*
X74634800Y-63159000D01*
D49*
X78089800Y-63914000D02*
X78539800Y-63914000D01*
D50*
X73144800Y-61919000D02*
X73394800Y-61919000D01*
D49*
X75044800Y-67819000D02*
X75644800Y-67219000D01*
X71644800Y-57919000D02*
X73069800Y-57919000D01*
X71344800Y-58219000D02*
X71644800Y-57919000D01*
D50*
X74634800Y-63159000D02*
X75104800Y-63159000D01*
D49*
X75694800Y-62769000D02*
X77464800Y-64539000D01*
D50*
X82444800Y-66699000D02*
X82349800Y-66794000D01*
D49*
X75644800Y-66359000D02*
X77464800Y-64539000D01*
D50*
X73144800Y-60794000D02*
X73144800Y-61919000D01*
D49*
X73169800Y-60144000D02*
X73169800Y-60769000D01*
X71344800Y-58319000D02*
X73169800Y-60144000D01*
D52*
X71967300Y-63519000D02*
X74744800Y-63519000D01*
D49*
X75644800Y-67219000D02*
X75644800Y-66359000D01*
X71344800Y-58219000D02*
X68744800Y-58219000D01*
D50*
X73169800Y-60769000D02*
X73144800Y-60794000D01*
X78944800Y-64319000D02*
X80444800Y-64319000D01*
D52*
X75494800Y-62769000D02*
X75694800Y-62769000D01*
D49*
X75044800Y-69444000D02*
X75044800Y-67819000D01*
X77464800Y-64539000D02*
X78089800Y-63914000D01*
D50*
X82444800Y-64769000D02*
X82444800Y-66699000D01*
D49*
X74744800Y-63519000D02*
X75104800Y-63159000D01*
D50*
%TO.N,Net-(D2-Pad1)*%
X77732300Y-57819000D02*
X77782300Y-57769000D01*
D49*
X75219800Y-57819000D02*
X77732300Y-57819000D01*
%TO.N,Net-(C3-Pad1)*%
X92694800Y-58218520D02*
X91995280Y-57519000D01*
D50*
X86944800Y-63519000D02*
X86944800Y-62269000D01*
D49*
X87844800Y-59119000D02*
X87844800Y-59619000D01*
X91995280Y-57519000D02*
X89944800Y-57519000D01*
X89444800Y-57519000D02*
X87844800Y-59119000D01*
X86944800Y-62269000D02*
X85694800Y-61019000D01*
D50*
X87344800Y-61019000D02*
X85694800Y-61019000D01*
X92694800Y-59919000D02*
X92694800Y-58218520D01*
D49*
X87844800Y-60519000D02*
X87344800Y-61019000D01*
X89944800Y-57519000D02*
X89444800Y-57519000D01*
X87844800Y-59619000D02*
X87844800Y-60519000D01*
D50*
%TO.N,Net-(R2-Pad2)*%
X79607300Y-57769000D02*
X79657300Y-57819000D01*
X81079800Y-59154000D02*
X81079800Y-61844000D01*
X79657300Y-57819000D02*
X79744800Y-57819000D01*
D49*
X79744800Y-57819000D02*
X81079800Y-59154000D01*
%TO.N,Net-(R4-Pad2)*%
X92944800Y-64769000D02*
X92694800Y-64519000D01*
X95782300Y-64769000D02*
X92944800Y-64769000D01*
D50*
X92694800Y-64519000D02*
X92694800Y-62619000D01*
%TO.N,Net-(R3-Pad1)*%
X79809800Y-69384000D02*
X79809800Y-66794000D01*
D49*
X80944800Y-70519000D02*
X79809800Y-69384000D01*
%TO.N,BAT-*%
X103094800Y-67019000D02*
X102144800Y-67969000D01*
X88119800Y-65594000D02*
X86944800Y-65594000D01*
X104444800Y-67019000D02*
X103094800Y-67019000D01*
D50*
X91194800Y-71269000D02*
X90894800Y-71269000D01*
D49*
X86944800Y-69769000D02*
X88444800Y-71269000D01*
X89344800Y-59869000D02*
X89344800Y-64369000D01*
X100444800Y-71619000D02*
X91244800Y-71619000D01*
X90294800Y-58919000D02*
X89344800Y-59869000D01*
X91494800Y-70969000D02*
X91194800Y-71269000D01*
X89344800Y-64369000D02*
X88119800Y-65594000D01*
X102144800Y-67969000D02*
X102144800Y-69919000D01*
X102144800Y-69919000D02*
X100444800Y-71619000D01*
X90894800Y-71269000D02*
X88444800Y-71269000D01*
X91244800Y-71619000D02*
X90894800Y-71269000D01*
X86944800Y-65594000D02*
X86944800Y-69769000D01*
D50*
X91744800Y-59069000D02*
X91594800Y-58919000D01*
X91744800Y-59919000D02*
X91744800Y-59069000D01*
X91494800Y-69369000D02*
X91494800Y-70969000D01*
X91594800Y-58919000D02*
X90294800Y-58919000D01*
D51*
%TO.N,/OC*%
X98544800Y-62619000D02*
X95044800Y-62619000D01*
D50*
X93644800Y-62619000D02*
X95044800Y-62619000D01*
D51*
X99244800Y-63319000D02*
X98544800Y-62619000D01*
D49*
X99244800Y-67519000D02*
X99244800Y-63319000D01*
%TO.N,/G2*%
X93394800Y-66669000D02*
X95294800Y-66669000D01*
X95294800Y-66669000D02*
X96144800Y-67519000D01*
D50*
%TO.N,/G1*%
X91494800Y-66669000D02*
X91494800Y-65069000D01*
X91144800Y-63219000D02*
X91744800Y-62619000D01*
D49*
X91144800Y-64719000D02*
X91144800Y-63219000D01*
X91494800Y-65069000D02*
X91144800Y-64719000D01*
D50*
%TO.N,unconnected-(J1-Pad6)*%
X67997300Y-63669000D02*
X67997300Y-61444000D01*
X67997300Y-68194000D02*
X70192300Y-68194000D01*
X70192300Y-68194000D02*
X70577300Y-67809000D01*
D49*
X67997300Y-66369000D02*
X67997300Y-63669000D01*
D50*
X70577300Y-61829000D02*
X68382300Y-61829000D01*
X68382300Y-61829000D02*
X67997300Y-61444000D01*
X67997300Y-66369000D02*
X67997300Y-68194000D01*
%TD*%
M02*
