%TF.GenerationSoftware,KiCad,Pcbnew,(6.0.4)*%
%TF.CreationDate,2022-04-07T12:48:27-03:00*%
%TF.ProjectId,LayoutPCB,4c61796f-7574-4504-9342-2e6b69636164,Rafael Pascale*%
%TF.SameCoordinates,Original*%
%TF.FileFunction,Copper,L2,Bot*%
%TF.FilePolarity,Positive*%
%FSLAX46Y46*%
G04 Gerber Fmt 4.6, Leading zero omitted, Abs format (unit mm)*
G04 Created by KiCad (PCBNEW (6.0.4)) date 2022-04-07 12:48:27*
%MOMM*%
%LPD*%
G01*
G04 APERTURE LIST*
%TA.AperFunction,ComponentPad*%
%ADD10R,1.700000X1.700000*%
%TD*%
%TA.AperFunction,ComponentPad*%
%ADD11O,1.700000X1.700000*%
%TD*%
%TA.AperFunction,ComponentPad*%
%ADD12C,2.997200*%
%TD*%
%TA.AperFunction,ComponentPad*%
%ADD13C,1.600000*%
%TD*%
%TA.AperFunction,ComponentPad*%
%ADD14O,1.600000X1.600000*%
%TD*%
%TA.AperFunction,ComponentPad*%
%ADD15R,3.500000X3.500000*%
%TD*%
%TA.AperFunction,ComponentPad*%
%ADD16C,3.500000*%
%TD*%
%TA.AperFunction,ComponentPad*%
%ADD17R,3.800000X3.800000*%
%TD*%
%TA.AperFunction,ComponentPad*%
%ADD18C,4.000000*%
%TD*%
%TA.AperFunction,WasherPad*%
%ADD19C,0.450000*%
%TD*%
%TA.AperFunction,ComponentPad*%
%ADD20R,1.498600X1.498600*%
%TD*%
%TA.AperFunction,ComponentPad*%
%ADD21C,1.498600*%
%TD*%
%TA.AperFunction,ViaPad*%
%ADD22C,0.800000*%
%TD*%
%TA.AperFunction,Conductor*%
%ADD23C,0.200000*%
%TD*%
%TA.AperFunction,Conductor*%
%ADD24C,0.250000*%
%TD*%
G04 APERTURE END LIST*
D10*
%TO.P,REF\u002A\u002A,1*%
%TO.N,N/C*%
X83937000Y-38887000D03*
D11*
%TO.P,REF\u002A\u002A,2*%
X81397000Y-38887000D03*
%TO.P,REF\u002A\u002A,3*%
X78857000Y-38887000D03*
%TO.P,REF\u002A\u002A,4*%
X76317000Y-38887000D03*
%TD*%
D10*
%TO.P,REF\u002A\u002A,1*%
%TO.N,N/C*%
X108458000Y-61341000D03*
%TD*%
%TO.P,REF\u002A\u002A,1*%
%TO.N,N/C*%
X108585000Y-66675000D03*
%TD*%
%TO.P,REF\u002A\u002A,1*%
%TO.N,N/C*%
X108458000Y-71247000D03*
%TD*%
%TO.P,REF\u002A\u002A,1*%
%TO.N,N/C*%
X108331000Y-57023000D03*
%TD*%
%TO.P,,1*%
%TO.N,N/C*%
X64389000Y-58039000D03*
%TD*%
%TO.P,REF\u002A\u002A,1*%
%TO.N,N/C*%
X65024000Y-71755000D03*
%TD*%
%TO.P,REF\u002A\u002A,1*%
%TO.N,N/C*%
X76327000Y-78867000D03*
D11*
%TO.P,REF\u002A\u002A,2*%
X78867000Y-78867000D03*
%TO.P,REF\u002A\u002A,3*%
X81407000Y-78867000D03*
%TO.P,REF\u002A\u002A,4*%
X83947000Y-78867000D03*
%TO.P,REF\u002A\u002A,5*%
X86487000Y-78867000D03*
%TO.P,REF\u002A\u002A,6*%
X89027000Y-78867000D03*
%TO.P,REF\u002A\u002A,7*%
X91567000Y-78867000D03*
%TO.P,REF\u002A\u002A,8*%
X94107000Y-78867000D03*
%TO.P,REF\u002A\u002A,9*%
X96647000Y-78867000D03*
%TO.P,REF\u002A\u002A,10*%
X99187000Y-78867000D03*
%TO.P,REF\u002A\u002A,11*%
X101727000Y-78867000D03*
%TO.P,REF\u002A\u002A,12*%
X104267000Y-78867000D03*
%TO.P,REF\u002A\u002A,13*%
X106807000Y-78867000D03*
%TO.P,REF\u002A\u002A,14*%
X109347000Y-78867000D03*
%TO.P,REF\u002A\u002A,15*%
X111887000Y-78867000D03*
%TO.P,REF\u002A\u002A,16*%
X114427000Y-78867000D03*
%TO.P,REF\u002A\u002A,17*%
X116967000Y-78867000D03*
%TO.P,REF\u002A\u002A,18*%
X119507000Y-78867000D03*
%TD*%
D10*
%TO.P,REF\u002A\u002A,1*%
%TO.N,N/C*%
X76327000Y-101600000D03*
D11*
%TO.P,REF\u002A\u002A,2*%
X78867000Y-101600000D03*
%TO.P,REF\u002A\u002A,3*%
X81407000Y-101600000D03*
%TO.P,REF\u002A\u002A,4*%
X83947000Y-101600000D03*
%TO.P,REF\u002A\u002A,5*%
X86487000Y-101600000D03*
%TO.P,REF\u002A\u002A,6*%
X89027000Y-101600000D03*
%TO.P,REF\u002A\u002A,7*%
X91567000Y-101600000D03*
%TO.P,REF\u002A\u002A,8*%
X94107000Y-101600000D03*
%TO.P,REF\u002A\u002A,9*%
X96647000Y-101600000D03*
%TO.P,REF\u002A\u002A,10*%
X99187000Y-101600000D03*
%TO.P,REF\u002A\u002A,11*%
X101727000Y-101600000D03*
%TO.P,REF\u002A\u002A,12*%
X104267000Y-101600000D03*
%TO.P,REF\u002A\u002A,13*%
X106807000Y-101600000D03*
%TO.P,REF\u002A\u002A,14*%
X109347000Y-101600000D03*
%TO.P,REF\u002A\u002A,15*%
X111887000Y-101600000D03*
%TO.P,REF\u002A\u002A,16*%
X114427000Y-101600000D03*
%TO.P,REF\u002A\u002A,17*%
X116967000Y-101600000D03*
%TO.P,REF\u002A\u002A,18*%
X119507000Y-101600000D03*
%TD*%
D12*
%TO.P,,*%
%TO.N,GND*%
X118999000Y-97282000D03*
%TD*%
%TO.P,,*%
%TO.N,GND*%
X118999000Y-83286600D03*
%TD*%
D13*
%TO.P,Inductor,1*%
%TO.N,N/C*%
X115570000Y-59690000D03*
D14*
%TO.P,Inductor,2*%
X115570000Y-62230000D03*
%TD*%
D13*
%TO.P,Capacitor ,1*%
%TO.N,N/C*%
X114840000Y-69850000D03*
%TO.P,Capacitor ,2*%
X124840000Y-69850000D03*
%TD*%
D12*
%TO.P,,*%
%TO.N,GND*%
X89789000Y-83286600D03*
%TD*%
%TO.P,,*%
%TO.N,GND*%
X89789000Y-97282000D03*
%TD*%
D15*
%TO.P,REF\u002A\u002A,1*%
%TO.N,N/C*%
X130348300Y-121539000D03*
D16*
%TO.P,REF\u002A\u002A,2*%
X58348300Y-121539000D03*
%TD*%
D17*
%TO.P,REF\u002A\u002A,1*%
%TO.N,N/C*%
X133350000Y-80010000D03*
D18*
%TO.P,REF\u002A\u002A,2*%
X133350000Y-85010000D03*
%TD*%
D13*
%TO.P,Capacitor ,1*%
%TO.N,N/C*%
X113110000Y-49530000D03*
%TO.P,Capacitor ,2*%
X123110000Y-49530000D03*
%TD*%
D19*
%TO.P,J1,*%
%TO.N,*%
X70084890Y-62959000D03*
X70084890Y-66698992D03*
%TD*%
D20*
%TO.P,JP2,1*%
%TO.N,N/C*%
X76327000Y-101600000D03*
D21*
%TO.P,JP2,2*%
X78867000Y-101600000D03*
%TO.P,JP2,3*%
X81407000Y-101600000D03*
%TO.P,JP2,4*%
X83947000Y-101600000D03*
%TO.P,JP2,5*%
X86487000Y-101600000D03*
%TO.P,JP2,6*%
X89027000Y-101600000D03*
%TO.P,JP2,7*%
X91567000Y-101600000D03*
%TO.P,JP2,8*%
X94107000Y-101600000D03*
%TO.P,JP2,9*%
X96647000Y-101600000D03*
%TO.P,JP2,10*%
X99187000Y-101600000D03*
%TO.P,JP2,11*%
X101727000Y-101600000D03*
%TO.P,JP2,12*%
X104267000Y-101600000D03*
%TO.P,JP2,13*%
X106807000Y-101600000D03*
%TO.P,JP2,14*%
X109347000Y-101600000D03*
%TO.P,JP2,15*%
X111887000Y-101600000D03*
%TO.P,JP2,16*%
X114427000Y-101600000D03*
%TO.P,JP2,17*%
X116967000Y-101600000D03*
%TO.P,JP2,18*%
X119507000Y-101600000D03*
%TD*%
D20*
%TO.P,JP3,1*%
%TO.N,N/C*%
X76327000Y-78867000D03*
D21*
%TO.P,JP3,2*%
X78867000Y-78867000D03*
%TO.P,JP3,3*%
X81407000Y-78867000D03*
%TO.P,JP3,4*%
X83947000Y-78867000D03*
%TO.P,JP3,5*%
X86487000Y-78867000D03*
%TO.P,JP3,6*%
X89027000Y-78867000D03*
%TO.P,JP3,7*%
X91567000Y-78867000D03*
%TO.P,JP3,8*%
X94107000Y-78867000D03*
%TO.P,JP3,9*%
X96647000Y-78867000D03*
%TO.P,JP3,10*%
X99187000Y-78867000D03*
%TO.P,JP3,11*%
X101727000Y-78867000D03*
%TO.P,JP3,12*%
X104267000Y-78867000D03*
%TO.P,JP3,13*%
X106807000Y-78867000D03*
%TO.P,JP3,14*%
X109347000Y-78867000D03*
%TO.P,JP3,15*%
X111887000Y-78867000D03*
%TO.P,JP3,16*%
X114427000Y-78867000D03*
%TO.P,JP3,17*%
X116967000Y-78867000D03*
%TO.P,JP3,18*%
X119507000Y-78867000D03*
%TD*%
D22*
%TO.N,*%
X119507000Y-77470000D03*
X78867000Y-102997000D03*
X76327000Y-102997000D03*
X96647000Y-77597000D03*
X78867000Y-77470000D03*
X96774000Y-102997000D03*
%TO.N,GND*%
X76454000Y-77470000D03*
%TO.N,*%
X76200000Y-78867000D03*
%TD*%
D23*
%TO.N,GND*%
X83937000Y-36566000D02*
X83937000Y-38887000D01*
X82296000Y-34925000D02*
X83937000Y-36566000D01*
X69596000Y-34925000D02*
X82296000Y-34925000D01*
X76454000Y-77470000D02*
X75311000Y-76327000D01*
X75311000Y-76327000D02*
X65659000Y-76327000D01*
X54356000Y-50165000D02*
X69596000Y-34925000D01*
X65659000Y-76327000D02*
X54356000Y-65024000D01*
X54356000Y-65024000D02*
X54356000Y-50165000D01*
D24*
%TO.N,*%
X81397000Y-38887000D02*
X81397000Y-41138000D01*
X83439000Y-43180000D02*
X98298000Y-43180000D01*
X83312000Y-43180000D02*
X83439000Y-43180000D01*
X81397000Y-41138000D02*
X83439000Y-43180000D01*
D23*
X111760000Y-60452000D02*
X108331000Y-57023000D01*
X111760000Y-73025000D02*
X111760000Y-60452000D01*
X80264000Y-76073000D02*
X108712000Y-76073000D01*
X78867000Y-77470000D02*
X80264000Y-76073000D01*
X108712000Y-76073000D02*
X111760000Y-73025000D01*
%TO.N,GND*%
X106934000Y-75057000D02*
X108458000Y-73533000D01*
X108458000Y-73533000D02*
X108458000Y-71247000D01*
X78359000Y-75057000D02*
X106934000Y-75057000D01*
X76454000Y-76962000D02*
X78359000Y-75057000D01*
X76454000Y-77470000D02*
X76454000Y-76962000D01*
%TO.N,*%
X116586000Y-109347000D02*
X100838000Y-109347000D01*
X123110000Y-49530000D02*
X123110000Y-54530000D01*
X134620000Y-49530000D02*
X140970000Y-55880000D01*
%TO.N,GND*%
X76581000Y-77470000D02*
X76454000Y-77470000D01*
%TO.N,*%
X113110000Y-49530000D02*
X113110000Y-52150000D01*
D24*
X96901000Y-77089000D02*
X111125000Y-77089000D01*
X112649000Y-57531000D02*
X112649000Y-75565000D01*
D23*
X120650000Y-59690000D02*
X124460000Y-59690000D01*
D24*
X96901000Y-77089000D02*
X108331000Y-77089000D01*
D23*
X123110000Y-49530000D02*
X134620000Y-49530000D01*
D24*
X112649000Y-75565000D02*
X111125000Y-77089000D01*
D23*
%TO.N,GND*%
X76454000Y-77343000D02*
X76581000Y-77470000D01*
%TO.N,*%
X121412000Y-77470000D02*
X122555000Y-78613000D01*
D24*
X108331000Y-77089000D02*
X108712000Y-77089000D01*
D23*
X135890000Y-80010000D02*
X133350000Y-80010000D01*
X119507000Y-77470000D02*
X121412000Y-77470000D01*
X100838000Y-109347000D02*
X74041000Y-136144000D01*
X113110000Y-52150000D02*
X120650000Y-59690000D01*
X122555000Y-78613000D02*
X122555000Y-81280000D01*
X140970000Y-55880000D02*
X140970000Y-74930000D01*
X123110000Y-54530000D02*
X124460000Y-55880000D01*
X125349000Y-84074000D02*
X125349000Y-100584000D01*
D24*
X96774000Y-77216000D02*
X96901000Y-77089000D01*
X98298000Y-43180000D02*
X112649000Y-57531000D01*
D23*
X122555000Y-81280000D02*
X125349000Y-84074000D01*
X140970000Y-74930000D02*
X135890000Y-80010000D01*
X125349000Y-100584000D02*
X116586000Y-109347000D01*
%TD*%
M02*
