M48
; DRILL file {KiCad (6.0.4)} date Wed Apr  6 18:13:07 2022
; FORMAT={-:-/ absolute / inch / decimal}
; #@! TF.CreationDate,2022-04-06T18:13:07-03:00
; #@! TF.GenerationSoftware,Kicad,Pcbnew,(6.0.4)
; #@! TF.FileFunction,Plated,1,2,PTH
FMAT,2
INCH
; #@! TA.AperFunction,Plated,PTH,ViaDrill
T1C0.0157
; #@! TA.AperFunction,Plated,PTH,ComponentDrill
T2C0.0315
; #@! TA.AperFunction,Plated,PTH,ComponentDrill
T3C0.0350
; #@! TA.AperFunction,Plated,PTH,ComponentDrill
T4C0.0720
; #@! TA.AperFunction,Plated,PTH,ComponentDrill
T5C0.0787
; #@! TA.AperFunction,Plated,PTH,ComponentDrill
T6C0.1063
%
G90
G05
T1
X2.535Y-2.28
X2.54Y-2.825
X3.0Y-3.105
X3.005Y-4.055
X3.01Y-3.05
X3.105Y-3.05
X3.105Y-4.055
X3.805Y-3.055
X3.81Y-4.055
X4.24Y-2.42
X4.245Y-2.24
X4.245Y-2.82
X4.25Y-2.64
X4.705Y-3.05
T2
X3.0038Y-1.5462
X3.1038Y-1.5462
X3.2038Y-1.5462
X3.3038Y-1.5462
X4.4531Y-1.95
X4.5213Y-2.75
X4.55Y-2.35
X4.55Y-2.45
X4.8469Y-1.95
X4.915Y-2.75
T3
X3.005Y-3.105
X3.005Y-4.0
X3.105Y-3.105
X3.105Y-4.0
X3.205Y-3.105
X3.205Y-4.0
X3.305Y-3.105
X3.305Y-4.0
X3.405Y-3.105
X3.405Y-4.0
X3.505Y-3.105
X3.505Y-4.0
X3.605Y-3.105
X3.605Y-4.0
X3.705Y-3.105
X3.705Y-4.0
X3.805Y-3.105
X3.805Y-4.0
X3.905Y-3.105
X3.905Y-4.0
X4.005Y-3.105
X4.005Y-4.0
X4.105Y-3.105
X4.105Y-4.0
X4.205Y-3.105
X4.205Y-4.0
X4.305Y-3.105
X4.305Y-4.0
X4.405Y-3.105
X4.405Y-4.0
X4.505Y-3.105
X4.505Y-4.0
X4.605Y-3.105
X4.605Y-4.0
X4.705Y-3.105
X4.705Y-4.0
T4
X3.535Y-3.279
X3.535Y-3.83
X4.685Y-3.279
X4.685Y-3.83
T5
X2.2972Y-4.785
X5.1318Y-4.785
T6
X5.25Y-3.15
X5.25Y-3.3469
T0
M30
